Coordinates
version=1
nRows=8
nColumns=33
inDegrees=yes

Units are S.I. units (second, meters, Newtons, ...)
Angles are in degrees.

endheader
time	ground_thorax_rot_x	ground_thorax_rot_y	ground_thorax_rot_z	ground_thorax_tx	ground_thorax_ty	ground_thorax_tz	clav_prot_r	clav_elev_r	scapula_abduction_r	scapula_elevation_r	scapula_upward_rot_r	scapula_winging_r	shoulder_elv_r	plane_of_elev_r	axial_rot_r	elbow_flexion_r	pro_sup_r	wrist_flex_r	wrist_dev_r	clav_prot_l	clav_elev_l	scapula_abduction_l	scapula_elevation_l	scapula_upward_rot_l	scapula_winging_l	shoulder_elv_l	plane_of_elev_l	axial_rot_l	elbow_flexion_l	pro_sup_l	wrist_flex_l	wrist_dev_l
      7.50000000	     39.86811027	      7.73980617	      7.97891473	   -232.81288421	    846.52485737	      6.23607765	     11.87828356	     39.66377143	     37.94493917	     45.00000000	    -30.04476360	   2789.46535152	  -3893.22217788	     32.98963669	     53.68559143	    382.20237743	    122.35833759	     11.35007645	      2.21218329	      9.83217388	    -45.00000000	    -39.00894739	     45.00000000	    -45.00000000	  -1342.32277453	    268.35136526	    136.13750918	   -179.99999979	   1452.24773392	     54.11782327	      2.65748088	    -23.24197880
      7.51000000	     39.96659611	      7.76635898	      8.01711713	   -231.18884854	    846.03407670	      6.16928099	     12.10843862	     39.83230250	     38.18493510	     45.00000000	    -29.85931707	   2789.33633383	  -3893.32845036	     33.07360720	     53.68041220	    382.18296183	    122.58883682	     11.41168580	      2.11059410	      9.64791380	    -45.00000000	    -38.99023007	     45.00000000	    -45.00000000	  -1342.51734921	    268.36711146	    136.09835538	   -179.99999979	   1452.34055800	     53.59903706	      2.71635668	    -23.22617105
      7.52000000	     40.01403708	      7.89031219	      8.11686384	   -229.45523619	    845.48511043	      6.10680358	     11.99814642	     39.87441993	     38.26557990	     45.00000000	    -29.51270728	   2789.33232451	  -3893.36443591	     33.04730438	     53.49154697	    382.19392246	    122.77602309	     11.46552900	      2.01609233	      9.70857421	    -45.00000000	    -39.02175131	     45.00000000	    -45.00000000	  -1342.64060258	    268.43585333	    135.98164811	   -179.99999979	   1452.35644816	     53.06523041	      2.80799159	    -23.20691927
      7.53000000	     40.08323704	      7.95124770	      8.21400816	   -227.60788693	    844.86675806	      6.05113782	     12.22995138	     40.04534096	     38.53441608	     45.00000000	    -29.30171610	   2789.20586028	  -3893.44305445	     33.10752192	     53.48925686	    382.19329134	    122.88635436	     11.54970093	      1.89661296	      9.52755085	    -45.00000000	    -39.02656520	     45.00000000	    -45.00000000	  -1342.84027120	    268.48952692	    135.97978157	   -179.99999979	   1452.46228774	     52.41369729	      2.89208175	    -23.19806664
      7.54000000	     40.12429315	      8.11096507	      8.34778415	   -225.64888084	    844.16949681	      6.00473558	     12.05627170	     40.04881053	     38.56230829	     45.00000000	    -28.92744000	   2789.23617457	  -3893.51694667	     33.06041902	     53.23008238	    382.21341606	    122.97278380	     11.63245284	      1.79940701	      9.63462777	    -45.00000000	    -39.00890214	     45.00000000	    -45.00000000	  -1342.95000982	    268.55568338	    135.80566644	   -179.99999979	   1452.44955882	     51.78086781	      3.02069895	    -23.17852011
      7.55000000	     40.21083828	      8.24593506	      8.46153740	   -223.57078540	    843.38059397	      5.96939258	     12.27743980	     40.21077109	     38.72888896	     45.00000000	    -28.70383496	   2789.15441947	  -3893.57400895	     33.12231046	     53.20761355	    382.18507690	    122.96506909	     11.76303352	      1.67215363	      9.45232675	    -45.00000000	    -38.98090930	     45.00000000	    -45.00000000	  -1343.18859054	    268.60697191	    135.76404942	   -179.99999979	   1452.55776798	     51.01731042	      3.13533443	    -23.16989148
      7.56000000	     40.25799511	      8.39417648	      8.61427270	   -221.37058130	    842.48974409	      5.94595023	     12.21643357	     40.25959379	     38.82745669	     45.00000000	    -28.39971822	   2789.14978856	  -3893.65728271	     33.13630189	     53.00216655	    382.16887930	    122.92200042	     11.89849410	      1.56267082	      9.48134612	    -45.00000000	    -38.96126285	     45.00000000	    -45.00000000	  -1343.35412608	    268.65765978	    135.62557479	   -179.99999979	   1452.54563645	     50.23032287	      3.29858585	    -23.15162180
      7.57000000	     40.30261945	      8.52918845	      8.76813973	   -219.04533646	    841.48747658	      5.93431970	     12.16413374	     40.30509356	     38.91365283	     45.00000000	    -28.07014012	   2789.18973457	  -3893.72763828	     33.14470273	     52.79831319	    382.16491398	    122.80383116	     12.04887776	      1.44717198	      9.48712244	    -45.00000000	    -38.95755638	     45.00000000	    -45.00000000	  -1343.52828958	    268.68850567	    135.50188763	   -179.99999979	   1452.53482605	     49.39770680	      3.48604568	    -23.14218410
